<svg xmlns="http://www.w3.org/2000/svg" width="1200" height="630" viewBox="0 0 1200 630" role="img" aria-label="Repurly social preview">
  <defs>
    <linearGradient id="bg" x1="0" y1="0" x2="1" y2="1">
      <stop offset="0%" stop-color="#0B1020"/>
      <stop offset="55%" stop-color="#111933"/>
      <stop offset="100%" stop-color="#161F3D"/>
    </linearGradient>
    <linearGradient id="accent" x1="0" y1="0" x2="1" y2="1">
      <stop offset="0%" stop-color="#3B82F6"/>
      <stop offset="50%" stop-color="#14B8A6"/>
      <stop offset="100%" stop-color="#8B5CF6"/>
    </linearGradient>
  </defs>
  <rect width="1200" height="630" fill="url(#bg)"/>
  <circle cx="980" cy="110" r="180" fill="#3B82F6" opacity="0.16"/>
  <circle cx="1080" cy="520" r="220" fill="#8B5CF6" opacity="0.13"/>
  <rect x="70" y="72" width="190" height="190" rx="42" fill="#0b1220" stroke="#334155"/>
  <rect x="98" y="100" width="134" height="134" rx="32" fill="url(#accent)" opacity="0.18"/>
  <path d="M120 118h49c25 0 42 15 42 37s-17 37-42 37h-23v25h-26V118zm26 22v31h21c11 0 18-6 18-15 0-10-7-16-18-16h-21z" fill="#fff"/>
  <path d="M146 192l67 64h-37l-56-50z" fill="#dbeafe"/>
  <text x="310" y="165" fill="#fff" font-size="62" font-family="Inter,Segoe UI,Arial,sans-serif" font-weight="800">Repurly</text>
  <text x="310" y="235" fill="#cbd5e1" font-size="34" font-family="Inter,Segoe UI,Arial,sans-serif">Content workflow software for agencies</text>
  <text x="310" y="320" fill="#e2e8f0" font-size="30" font-family="Inter,Segoe UI,Arial,sans-serif">Plan, approve and publish client content</text>
  <text x="310" y="365" fill="#e2e8f0" font-size="30" font-family="Inter,Segoe UI,Arial,sans-serif">through one cleaner multi-brand workflow.</text>
  <rect x="310" y="420" width="320" height="74" rx="37" fill="url(#accent)"/>
  <text x="382" y="467" fill="#fff" font-size="30" font-family="Inter,Segoe UI,Arial,sans-serif" font-weight="700">repurly.org</text>
  <text x="780" y="223" fill="#dbeafe" font-size="26" font-family="Inter,Segoe UI,Arial,sans-serif">Built by Jakoma</text>
  <text x="780" y="343" fill="#dbeafe" font-size="26" font-family="Inter,Segoe UI,Arial,sans-serif">Approval control</text>
  <text x="780" y="463" fill="#dbeafe" font-size="26" font-family="Inter,Segoe UI,Arial,sans-serif">Operational visibility</text>
</svg>